<?xml version="1.0" encoding="UTF-8" standalone="no"?>
<!-- Generator: Adobe Illustrator 25.0.1, SVG Export Plug-In . SVG Version: 6.00 Build 0)  -->

<svg
   version="1.1"
   id="katman_1"
   x="0px"
   y="0px"
   viewBox="0 0 291.32 291.32"
   xml:space="preserve"
   sodipodi:docname="coinbase.svg"
   width="291.32001"
   height="291.32001"
   inkscape:version="1.2.1 (9c6d41e410, 2022-07-14, custom)"
   inkscape:export-filename="coinbase.png"
   inkscape:export-xdpi="82.383629"
   inkscape:export-ydpi="82.383629"
   xmlns:inkscape="http://www.inkscape.org/namespaces/inkscape"
   xmlns:sodipodi="http://sodipodi.sourceforge.net/DTD/sodipodi-0.dtd"
   xmlns="http://www.w3.org/2000/svg"
   xmlns:svg="http://www.w3.org/2000/svg"><defs
   id="defs15" /><sodipodi:namedview
   id="namedview13"
   pagecolor="#ffffff"
   bordercolor="#000000"
   borderopacity="0.25"
   inkscape:showpageshadow="2"
   inkscape:pageopacity="0.0"
   inkscape:pagecheckerboard="0"
   inkscape:deskcolor="#d1d1d1"
   showgrid="false"
   inkscape:zoom="1.0897147"
   inkscape:cx="-66.531173"
   inkscape:cy="276.67791"
   inkscape:window-width="3440"
   inkscape:window-height="1420"
   inkscape:window-x="0"
   inkscape:window-y="20"
   inkscape:window-maximized="1"
   inkscape:current-layer="g8" />
<style
   type="text/css"
   id="style2">
	.st0{fill:#3259A5;}
	.st1{fill:#FFFFFF;}
</style>
<g
   id="g8"
   transform="translate(-471.04001,-134.34)">
	
	
<ellipse
   style="fill:#ffffff;stroke-width:1.69897"
   id="path669"
   cx="616.70001"
   cy="280"
   rx="114.39114"
   ry="115.88899" /><path
   id="circle4"
   class="st0"
   d="M 616.70002,134.33985 A 145.66,145.66 0 0 0 471.03986,280.00001 145.66,145.66 0 0 0 616.70002,425.66016 145.66,145.66 0 0 0 762.36017,280.00001 145.66,145.66 0 0 0 616.70002,134.33985 Z m 0.23046,43.83984 c 53.02995,0 96.58892,40.54037 101.37891,92.32032 h -51.36914 c -4.44999,-23.56998 -25.13979,-41.41016 -50.00977,-41.41016 -28.11997,0 -50.91015,22.79018 -50.91015,50.91016 0,28.11997 22.79018,50.91015 50.91015,50.91015 24.86998,0 45.55978,-17.83018 50.00977,-41.41015 h 51.36914 c -4.78999,51.77994 -48.34896,92.32031 -101.37891,92.32031 -56.22994,0 -101.82031,-45.58037 -101.82031,-101.82031 0,-56.22995 45.58037,-101.82032 101.82031,-101.82032 z"
   style="fill:#3259a5" /></g>

</svg>
