<?xml version="1.0" encoding="UTF-8" standalone="no"?>
<!-- Generator: Adobe Illustrator 22.0.1, SVG Export Plug-In . SVG Version: 6.00 Build 0)  -->

<svg
   version="1.1"
   id="Layer_1"
   x="0px"
   y="0px"
   viewBox="0 0 256 256.39999"
   xml:space="preserve"
   sodipodi:docname="metamask-fox.svg"
   width="256"
   height="256.39999"
   inkscape:export-filename="metamask-fox.png"
   inkscape:export-xdpi="96"
   inkscape:export-ydpi="96"
   inkscape:version="1.2.1 (9c6d41e410, 2022-07-14, custom)"
   xmlns:inkscape="http://www.inkscape.org/namespaces/inkscape"
   xmlns:sodipodi="http://sodipodi.sourceforge.net/DTD/sodipodi-0.dtd"
   xmlns="http://www.w3.org/2000/svg"
   xmlns:svg="http://www.w3.org/2000/svg"><defs
   id="defs579" /><sodipodi:namedview
   id="namedview577"
   pagecolor="#ffffff"
   bordercolor="#000000"
   borderopacity="0.25"
   inkscape:showpageshadow="2"
   inkscape:pageopacity="0.0"
   inkscape:pagecheckerboard="0"
   inkscape:deskcolor="#d1d1d1"
   showgrid="false"
   inkscape:zoom="3.2234777"
   inkscape:cx="54.444305"
   inkscape:cy="124.55492"
   inkscape:window-width="3440"
   inkscape:window-height="1420"
   inkscape:window-x="0"
   inkscape:window-y="20"
   inkscape:window-maximized="1"
   inkscape:current-layer="Layer_1" />
<style
   type="text/css"
   id="style506">
	.st0{fill:#E2761B;stroke:#E2761B;stroke-linecap:round;stroke-linejoin:round;}
	.st1{fill:#E4761B;stroke:#E4761B;stroke-linecap:round;stroke-linejoin:round;}
	.st2{fill:#D7C1B3;stroke:#D7C1B3;stroke-linecap:round;stroke-linejoin:round;}
	.st3{fill:#233447;stroke:#233447;stroke-linecap:round;stroke-linejoin:round;}
	.st4{fill:#CD6116;stroke:#CD6116;stroke-linecap:round;stroke-linejoin:round;}
	.st5{fill:#E4751F;stroke:#E4751F;stroke-linecap:round;stroke-linejoin:round;}
	.st6{fill:#F6851B;stroke:#F6851B;stroke-linecap:round;stroke-linejoin:round;}
	.st7{fill:#C0AD9E;stroke:#C0AD9E;stroke-linecap:round;stroke-linejoin:round;}
	.st8{fill:#161616;stroke:#161616;stroke-linecap:round;stroke-linejoin:round;}
	.st9{fill:#763D16;stroke:#763D16;stroke-linecap:round;stroke-linejoin:round;}
</style>














<g
   id="g615"
   transform="translate(-31.3,-25.500019)"><polygon
     class="st0"
     points="174.6,109.4 193,65.8 274.1,35.5 "
     id="polygon508" /><g
     id="g524">
	<polygon
   class="st1"
   points="143.1,110.1 125.6,65.8 44.4,35.5 "
   id="polygon510" />
	<polygon
   class="st1"
   points="211.8,247.4 268.5,263 284.8,207.7 238.3,206.8 "
   id="polygon512" />
	<polygon
   class="st1"
   points="50.1,263 106.8,247.4 80.3,206.8 33.9,207.7 "
   id="polygon514" />
	<polygon
   class="st1"
   points="87.8,162.1 144.1,164.6 142.1,104.1 103.6,138.2 "
   id="polygon516" />
	<polygon
   class="st1"
   points="175.9,103.4 174.6,164.6 230.8,162.1 214.9,138.2 "
   id="polygon518" />
	<polygon
   class="st1"
   points="140.6,230.9 111.4,208.1 106.8,247.4 "
   id="polygon520" />
	<polygon
   class="st1"
   points="211.8,247.4 207.1,208.1 177.9,230.9 "
   id="polygon522" />
</g><g
     id="g530">
	<polygon
   class="st2"
   points="177.9,230.9 180.6,253 180.3,262.3 211.8,247.4 "
   id="polygon526" />
	<polygon
   class="st2"
   points="138.3,262.3 138.1,253 140.6,230.9 106.8,247.4 "
   id="polygon528" />
</g><polygon
     class="st3"
     points="110.6,185.2 130.5,176.1 138.8,193.5 "
     id="polygon532" /><polygon
     class="st3"
     points="188,176.1 208,185.2 179.7,193.5 "
     id="polygon534" /><g
     id="g544">
	<polygon
   class="st4"
   points="111.6,206.8 80.3,207.7 106.8,247.4 "
   id="polygon536" />
	<polygon
   class="st4"
   points="211.8,247.4 238.3,207.7 207,206.8 "
   id="polygon538" />
	<polygon
   class="st4"
   points="188.1,176.1 208.1,185.2 230.8,162.1 174.6,164.6 179.8,193.5 "
   id="polygon540" />
	<polygon
   class="st4"
   points="144.1,164.6 87.8,162.1 110.6,185.2 130.6,176.1 138.8,193.5 "
   id="polygon542" />
</g><g
     id="g554">
	<polygon
   class="st5"
   points="111.4,208.1 110.6,185.2 87.8,162.1 "
   id="polygon546" />
	<polygon
   class="st5"
   points="207.1,208.1 230.8,162.1 208.1,185.2 "
   id="polygon548" />
	<polygon
   class="st5"
   points="138.8,193.5 145.4,227.6 146.9,182.7 144.1,164.6 "
   id="polygon550" />
	<polygon
   class="st5"
   points="171.9,182.6 173.1,227.6 179.8,193.5 174.6,164.6 "
   id="polygon552" />
</g><polygon
     class="st6"
     points="207.1,208.1 208.1,185.2 179.8,193.5 173.1,227.6 177.9,230.9 "
     id="polygon556" /><polygon
     class="st6"
     points="145.4,227.6 138.8,193.5 110.6,185.2 111.4,208.1 140.6,230.9 "
     id="polygon558" /><polygon
     class="st7"
     points="180.6,253 178.1,250.8 140.4,250.8 138.1,253 138.3,262.3 106.8,247.4 117.8,256.4 140.1,271.9 178.4,271.9 200.8,256.4 211.8,247.4 180.3,262.3 "
     id="polygon560" /><polygon
     class="st8"
     points="140.4,250.8 178.1,250.8 180.6,253 177.9,230.9 173.1,227.6 145.4,227.6 140.6,230.9 138.1,253 "
     id="polygon562" /><g
     id="g568">
	<polygon
   class="st9"
   points="274.1,35.5 177.9,106.9 214.9,138.2 267.2,153.5 278.8,140 273.8,136.4 281.8,129.1 275.6,124.3 283.6,118.2 278.3,114.2 286.8,73.4 "
   id="polygon564" />
	<polygon
   class="st9"
   points="34.9,118.2 42.9,124.3 36.8,129.1 44.8,136.4 39.8,140 51.3,153.5 103.6,138.2 140.6,106.9 44.4,35.5 31.8,73.4 40.3,114.2 "
   id="polygon566" />
</g><polygon
     class="st6"
     points="214.9,138.2 230.8,162.1 207.1,208.1 238.3,207.7 284.8,207.7 267.2,153.5 "
     id="polygon570" /><polygon
     class="st6"
     points="51.3,153.5 33.9,207.7 80.3,207.7 111.4,208.1 87.8,162.1 103.6,138.2 "
     id="polygon572" /><polygon
     class="st6"
     points="125.6,65.8 140.6,106.9 144.1,164.6 145.3,182.8 145.4,227.6 173.1,227.6 173.3,182.8 174.6,164.6 177.9,106.9 193.1,65.8 "
     id="polygon574" /></g>
</svg>
