<svg xmlns="http://www.w3.org/2000/svg" xmlns:xlink="http://www.w3.org/1999/xlink" width="152.5" height="170" viewBox="0 0 152.5 170">
  <defs>
    <filter id="Icon_awesome-discord" x="0" y="0" width="152.5" height="170" filterUnits="userSpaceOnUse">
      <feOffset input="SourceAlpha"/>
      <feGaussianBlur stdDeviation="5" result="blur"/>
      <feFlood flood-color="#00a4ff"/>
      <feComposite operator="in" in2="blur"/>
      <feComposite in="SourceGraphic"/>
    </filter>
  </defs>
  <g transform="matrix(1, 0, 0, 1, 0, 0)" filter="url(#Icon_awesome-discord)">
    <path id="Icon_awesome-discord-2" data-name="Icon awesome-discord" d="M81.27,66.5c0,4.27-3.15,7.77-7.14,7.77-3.92,0-7.14-3.5-7.14-7.77s3.15-7.77,7.14-7.77S81.27,62.23,81.27,66.5ZM48.58,58.73c-3.99,0-7.14,3.5-7.14,7.77s3.22,7.77,7.14,7.77c3.99,0,7.14-3.5,7.14-7.77A7.413,7.413,0,0,0,48.58,58.73ZM122.5,14.42V140c-17.635-15.584-12-10.426-32.48-29.47l3.71,12.95H14.35A14.385,14.385,0,0,1,0,109.06V14.42A14.385,14.385,0,0,1,14.35,0h93.8A14.385,14.385,0,0,1,122.5,14.42ZM102.55,80.78c0-22.54-10.08-40.81-10.08-40.81C82.39,32.41,72.8,32.62,72.8,32.62l-.98,1.12c11.9,3.64,17.43,8.89,17.43,8.89A59.478,59.478,0,0,0,36.96,40.6c-2.59,1.19-4.13,2.03-4.13,2.03s5.81-5.53,18.41-9.17l-.7-.84s-9.59-.21-19.67,7.35c0,0-10.08,18.27-10.08,40.81,0,0,5.88,10.15,21.35,10.64,0,0,2.59-3.15,4.69-5.81-8.89-2.66-12.25-8.26-12.25-8.26,1.03.721,2.728,1.655,2.87,1.75a51.026,51.026,0,0,0,43.68,2.45,40.057,40.057,0,0,0,8.05-4.13s-3.5,5.74-12.67,8.33c2.1,2.66,4.62,5.67,4.62,5.67C96.6,90.93,102.55,80.78,102.55,80.78Z" transform="translate(15 15)" fill="#fff"/>
  </g>
</svg>
