<svg xmlns="http://www.w3.org/2000/svg" width="30.982" height="23.615" viewBox="0 0 30.982 23.615">
  <path id="Path_30" data-name="Path 30" d="M26.227,2.369A25.549,25.549,0,0,0,19.921.413a.1.1,0,0,0-.1.048,17.8,17.8,0,0,0-.785,1.613,23.586,23.586,0,0,0-7.083,0,16.323,16.323,0,0,0-.8-1.613.1.1,0,0,0-.1-.048A25.478,25.478,0,0,0,4.747,2.369a.09.09,0,0,0-.041.036A26.148,26.148,0,0,0,.128,20.039a.106.106,0,0,0,.04.073A25.692,25.692,0,0,0,7.9,24.022a.1.1,0,0,0,.109-.036A18.363,18.363,0,0,0,9.6,21.412a.1.1,0,0,0-.054-.136,16.919,16.919,0,0,1-2.417-1.152.1.1,0,0,1-.01-.165c.162-.122.325-.248.48-.376a.1.1,0,0,1,.1-.014,18.322,18.322,0,0,0,15.57,0,.1.1,0,0,1,.1.012c.155.128.318.256.481.377a.1.1,0,0,1-.009.165,15.876,15.876,0,0,1-2.418,1.151.1.1,0,0,0-.052.138,20.618,20.618,0,0,0,1.581,2.573.1.1,0,0,0,.109.037,25.606,25.606,0,0,0,7.748-3.911.1.1,0,0,0,.04-.071A25.976,25.976,0,0,0,26.268,2.406.079.079,0,0,0,26.227,2.369ZM10.353,16.519A2.978,2.978,0,0,1,7.569,13.4a2.962,2.962,0,0,1,2.784-3.123A2.945,2.945,0,0,1,13.137,13.4,2.962,2.962,0,0,1,10.353,16.519Zm10.295,0A2.978,2.978,0,0,1,17.863,13.4a2.961,2.961,0,0,1,2.784-3.123A2.945,2.945,0,0,1,23.432,13.4,2.953,2.953,0,0,1,20.648,16.519Z" transform="translate(0 -0.412)" fill="#00a4ff"/>
</svg>
