<svg xmlns="http://www.w3.org/2000/svg" xmlns:xlink="http://www.w3.org/1999/xlink" width="172" height="200" viewBox="0 0 172 200">
  <defs>
    <filter id="document" x="0" y="0" width="172" height="200" filterUnits="userSpaceOnUse">
      <feOffset input="SourceAlpha"/>
      <feGaussianBlur stdDeviation="10" result="blur"/>
      <feFlood flood-color="#00a4ff"/>
      <feComposite operator="in" in2="blur"/>
      <feComposite in="SourceGraphic"/>
    </filter>
  </defs>
  <g transform="matrix(1, 0, 0, 1, 0, 0)" filter="url(#document)">
    <path id="document-2" data-name="document" d="M83,17H20V129h84V38H83ZM20,3H90l28,28v98a14,14,0,0,1-14,14H20A14,14,0,0,1,6,129V17A14,14,0,0,1,20,3ZM34,66H90V80H34Zm0,28H90v14H34Z" transform="translate(24 27)" fill="#fff"/>
  </g>
</svg>
