<svg width="35" height="19" viewBox="0 0 35 19" fill="none" xmlns="http://www.w3.org/2000/svg">
<path d="M31.5 8.63636C31.0793 8.63933 30.6625 8.71715 30.2698 8.86609L26.0732 5.47545C26.1765 5.10582 26.25 4.72236 26.25 4.31818C26.25 1.92418 24.3005 0 21.875 0C19.4495 0 17.5 1.92418 17.5 4.31818C17.5 5.00218 17.675 5.63955 17.9585 6.213L12.8677 12.1514C12.664 12.1137 12.4573 12.0935 12.25 12.0909C11.9368 12.0909 11.641 12.1427 11.354 12.2187L6.86875 7.79173C6.9475 7.51018 7 7.21827 7 6.90909C7 4.99527 5.439 3.45455 3.5 3.45455C1.561 3.45455 0 4.99527 0 6.90909C0 8.82291 1.561 10.3636 3.5 10.3636C3.81325 10.3636 4.109 10.3118 4.396 10.2358L8.88125 14.6628C8.79713 14.9498 8.75297 15.2467 8.75 15.5455C8.75 17.4593 10.311 19 12.25 19C14.189 19 15.75 17.4593 15.75 15.5455C15.75 15.1361 15.666 14.7509 15.5347 14.3865L20.6325 8.44118C21.0298 8.55518 21.441 8.63636 21.875 8.63636C22.5656 8.63259 23.2454 8.4662 23.8577 8.151L28.056 11.5416C28.0231 11.723 28.0043 11.9067 28 12.0909C28 14.0047 29.561 15.5455 31.5 15.5455C33.439 15.5455 35 14.0047 35 12.0909C35 10.1771 33.439 8.63636 31.5 8.63636Z" fill="white"/>
</svg>
