<svg xmlns="http://www.w3.org/2000/svg" width="24" height="23.999" viewBox="0 0 24 23.999">
  <path id="reademail" d="M23.86,23.179,15.657,15l8.18-8.18a1.353,1.353,0,0,1,.188.68v15a1.5,1.5,0,0,1-.164.68ZM21.047,7.5h-.023v.023l-6,6V13.5h-6v.023l-6-6V7.5H3L1.525,6.023V1.5A1.431,1.431,0,0,1,1.97.434,1.46,1.46,0,0,1,3.024,0h18A1.449,1.449,0,0,1,22.09.434,1.449,1.449,0,0,1,22.524,1.5V6.024ZM8.391,15l-8.2,8.18a1.5,1.5,0,0,1-.164-.68V7.5a1.353,1.353,0,0,1,.188-.68Zm5.156,0,9,9H1.5l9-9Z" transform="translate(-0.024)" fill="#00a4ff"/>
</svg>
