<svg width="23" height="21" viewBox="0 0 23 21" fill="none" xmlns="http://www.w3.org/2000/svg">
<path d="M20.7 4.66667V2.33333C20.7 1.0465 19.6684 0 18.4 0H3.45C1.5479 0 0 1.57033 0 3.5V17.5C0 20.0678 2.0631 21 3.45 21H20.7C21.9685 21 23 19.9535 23 18.6667V7C23 5.71317 21.9685 4.66667 20.7 4.66667ZM3.45 2.33333H18.4V4.66667H3.45C3.1539 4.65323 2.87432 4.52444 2.66947 4.30712C2.46462 4.0898 2.35029 3.80069 2.35029 3.5C2.35029 3.19931 2.46462 2.9102 2.66947 2.69288C2.87432 2.47556 3.1539 2.34677 3.45 2.33333ZM20.7 18.6667H3.4638C2.9325 18.6527 2.3 18.4392 2.3 17.5V6.78417C2.6611 6.916 3.04405 7 3.45 7H20.7V18.6667Z" fill="#8D8D8D"/>
</svg>
