<svg width="36" height="36" viewBox="0 0 36 36" fill="none" xmlns="http://www.w3.org/2000/svg">
<path d="M9.10234 6.40555L6.47095 9.0127L8.924 11.4431L11.5554 8.836L9.10234 6.40555Z" fill="white"/>
<path d="M23.5468 32.5915C23.5468 32.5915 22.2189 33.9124 22.2137 33.9175C19.8821 36.2277 16.0939 36.2277 13.7622 33.9175L1.79527 22.0349H1.78497C-0.546652 19.7195 -0.546652 15.966 1.78497 13.6558L3.11807 12.335L5.57323 14.7676L4.21954 16.1088C3.25189 17.0676 3.25189 18.618 4.21954 19.5767C4.21954 19.5767 15.7902 31.0718 16.238 31.5104C17.2056 32.464 18.7703 32.464 19.738 31.5104L21.1174 30.1436L23.552 32.5915H23.5468Z" fill="white"/>
<path d="M31.7828 16.1289C32.7453 17.0877 32.7453 18.6432 31.7828 19.5968L30.4446 20.9228L32.8998 23.3503L34.2174 22.0448C36.549 19.7345 36.549 15.9912 34.2174 13.6759V13.6657C32.6887 12.1714 22.235 1.78298 22.235 1.78298C19.9034 -0.527268 16.1254 -0.527268 13.7886 1.78298L12.4607 3.09874L14.9107 5.52628L16.2592 4.20032C17.2269 3.24154 18.7968 3.24154 19.7593 4.20032L31.7828 16.1289Z" fill="white"/>
<path d="M23.5159 14.9512L21.0659 17.3839L19.7585 16.0885C18.796 15.1348 17.2261 15.1348 16.2585 16.0885L8.91876 23.3608L6.46875 20.9333C6.46875 20.9333 13.7879 13.6865 13.7879 13.6814C16.1195 11.3712 19.8975 11.3712 22.2343 13.6814L23.521 14.9563L23.5159 14.9512Z" fill="white"/>
<path d="M23.5572 8.82628L22.2241 10.1471C19.8925 12.4624 16.0991 12.4624 13.7675 10.1522L7.75569 4.19568C5.36745 1.94668 1.94979 5.32784 4.21965 7.69923C5.40348 8.87218 10.2932 13.717 11.5748 14.9868L9.11967 17.4143C7.16893 15.4815 1.77994 10.1471 1.77994 10.1471V10.1369C-3.60391 4.36398 4.3998 -3.56107 10.216 1.76819H10.2263L16.2432 7.74513C17.2109 8.69879 18.7756 8.69879 19.7432 7.74513L21.1072 6.39369L23.5572 8.82628Z" fill="white"/>
<path d="M24.4732 26.8392L26.9026 29.2922L29.5533 26.6658L27.0982 24.2383L24.4732 26.8392Z" fill="white"/>
<path d="M22.2144 22.0556C19.8828 24.3659 16.0945 24.3659 13.7629 22.0556L12.4607 20.7704L14.9159 18.3378L16.2387 19.6485C17.2063 20.6073 18.771 20.6073 19.7387 19.6485L27.0939 12.3301L29.549 14.7576C28.1799 16.1244 22.2144 22.0556 22.2144 22.0556Z" fill="white"/>
<path d="M34.2322 33.9382C31.9057 36.2485 28.1226 36.2485 25.7858 33.9382L19.7534 27.9662C18.7909 27.0074 17.2211 27.0074 16.2534 27.9662L14.8997 29.2871L12.4497 26.8646L13.7725 25.559C16.1041 23.2335 19.8924 23.2284 22.2292 25.5488C23.2483 26.5535 28.241 31.5055 28.241 31.5055C29.2138 32.4694 30.8042 32.4694 31.777 31.5055C32.7498 30.5417 32.7498 28.9658 31.777 28.0019C31.777 28.0019 25.7909 22.0707 24.4167 20.709L26.8718 18.2764C28.2513 19.6431 34.227 25.5692 34.227 25.5692C36.5586 27.8795 36.5586 31.633 34.227 33.9382H34.2322Z" fill="white"/>
<path d="M28.2469 4.21621C30.6402 1.96209 34.0579 5.35347 31.7829 7.71978L30.4292 9.06104L32.8844 11.4937L34.2278 10.1626C36.5697 7.85238 36.5748 4.09891 34.2381 1.7836C31.9013 -0.531719 28.113 -0.526619 25.7814 1.7938L24.438 3.12485L26.8932 5.55746L28.2469 4.21621Z" fill="white"/>
<path d="M7.77682 31.5105C5.38343 33.7647 1.96577 30.3732 4.24078 28.0069L5.59446 26.6656L3.13931 24.2329L1.79592 25.564C-0.546004 27.8743 -0.551151 31.6278 1.78562 33.9432C4.1224 36.2585 7.91065 36.2534 10.2423 33.933L11.5857 32.6019L9.1305 30.1692L7.77682 31.5105Z" fill="white"/>
</svg>
