<svg width="41" height="40" viewBox="0 0 41 40" fill="none" xmlns="http://www.w3.org/2000/svg">
<path d="M10.1706 7.17585L7.23062 10.0996L9.97136 12.8252L12.9114 9.90146L10.1706 7.17585Z" fill="#968EFF"/>
<path d="M26.3085 36.5407C26.3085 36.5407 24.8248 38.022 24.8191 38.0277C22.214 40.6184 17.9815 40.6184 15.3764 38.0277L2.00593 24.7025H1.99443C-0.610651 22.106 -0.610651 17.8969 1.99443 15.3062L3.48387 13.825L6.22697 16.5529L4.71453 18.057C3.63339 19.1322 3.63339 20.8707 4.71453 21.9459C4.71453 21.9459 17.6422 34.8365 18.1425 35.3283C19.2236 36.3978 20.9718 36.3978 22.053 35.3283L23.5942 33.7956L26.3143 36.5407H26.3085Z" fill="#5A50D8"/>
<path d="M35.5097 18.0798C36.5851 19.155 36.5851 20.8993 35.5097 21.9687L34.0145 23.4557L36.7576 26.1779L38.2298 24.7138C40.8349 22.1231 40.8349 17.9254 38.2298 15.329V15.3176C36.5218 13.6419 24.8421 1.99234 24.8421 1.99234C22.237 -0.598358 18.016 -0.598358 15.4051 1.99234L13.9214 3.46784L16.6588 6.19007L18.1655 4.70314C19.2466 3.62797 21.0006 3.62797 22.076 4.70314L35.5097 18.0798Z" fill="#968EFF"/>
<path d="M26.274 16.7589L23.5367 19.4868L22.076 18.0342C21.0006 16.9648 19.2466 16.9648 18.1655 18.0342L9.96495 26.1895L7.2276 23.4673C7.2276 23.4673 15.4051 15.3406 15.4051 15.3349C18.0102 12.7442 22.2313 12.7442 24.8421 15.3349L26.2798 16.7646L26.274 16.7589Z" fill="#968EFF"/>
<path d="M26.32 9.89028L24.8306 11.3715C22.2255 13.9679 17.9872 13.9679 15.3821 11.3772L8.66529 4.69745C5.99695 2.17538 2.17846 5.96706 4.71454 8.62639C6.0372 9.94175 11.5004 15.3748 12.9323 16.7988L10.1892 19.521C8.0097 17.3535 1.98869 11.3715 1.98869 11.3715V11.3601C-4.02657 4.88618 4.91581 -4.00112 11.4141 1.97522H11.4256L18.1482 8.67786C19.2294 9.74731 20.9776 9.74731 22.0587 8.67786L23.5827 7.16233L26.32 9.89028Z" fill="#5A50D8"/>
<path d="M27.3437 30.0898L30.058 32.8406L33.0196 29.8953L30.2765 27.1731L27.3437 30.0898Z" fill="#5A50D8"/>
<path d="M24.8191 24.7254C22.214 27.3161 17.9815 27.3161 15.3764 24.7254L13.9214 23.2842L16.6645 20.5563L18.1425 22.0261C19.2236 23.1012 20.9718 23.1012 22.053 22.0261L30.2708 13.8193L33.0139 16.5416C31.4842 18.0743 24.8191 24.7254 24.8191 24.7254Z" fill="#5A50D8"/>
<path d="M38.247 38.0505C35.6477 40.6412 31.4209 40.6412 28.8101 38.0505L22.0702 31.3536C20.9948 30.2784 19.2409 30.2784 18.1597 31.3536L16.6473 32.8348L13.9099 30.1183L15.3879 28.6542C17.993 26.0464 22.2255 26.0407 24.8363 28.6428C25.975 29.7695 31.5532 35.3226 31.5532 35.3226C32.6401 36.4035 34.417 36.4035 35.5039 35.3226C36.5908 34.2417 36.5908 32.4745 35.5039 31.3936C35.5039 31.3936 28.8158 24.7425 27.2804 23.2155L30.0235 20.4875C31.5647 22.0202 38.2413 28.6657 38.2413 28.6657C40.8464 31.2564 40.8464 35.4656 38.2413 38.0505H38.247Z" fill="#968EFF"/>
<path d="M31.5589 4.72028C34.233 2.19249 38.0515 5.99561 35.5097 8.64922L33.9973 10.1533L36.7404 12.8813L38.2413 11.3886C40.8579 8.79792 40.8636 4.58874 38.2528 1.99233C35.642 -0.604089 31.4094 -0.59837 28.8043 2.00377L27.3034 3.49642L30.0465 6.22437L31.5589 4.72028Z" fill="#5A50D8"/>
<path d="M8.6883 35.3282C6.01421 37.856 2.19573 34.0529 4.73755 31.3993L6.24999 29.8952L3.50689 27.1672L2.00595 28.6599C-0.610629 31.2506 -0.61638 35.4598 1.99445 38.0562C4.60528 40.6526 8.83782 40.6469 11.4429 38.0447L12.9438 36.5521L10.2007 33.8241L8.6883 35.3282Z" fill="#968EFF"/>
</svg>
